# xmcd CD database file
#
# Track frame offsets:
#	150
#	11440
#	25224
#	35102
#	49109
#	64449
#	78962
#	91218
#	106280
#	120276
#	130251
#	143787
#	158509
#	172920
#	185524
#	199709
#	211054
#	224686
#	235898
#	248629
#
# Disc length: 3507 seconds
#
# Revision: 0
# Processed by: cddbd v1.4PL0 Copyright (c) Steve Scherf et al.
# Submitted via: CDex 1.40Release
#
DISCID=0c0db114
DTITLE=Various Artist - Classic Slide Guitar Blues Vol. 2
DYEAR=2000
DGENRE=Blues
TTITLE0=Busy Bootin' - Kokomo Arnold
TTITLE1=Last Time Blues - Charlie McCoy
TTITLE2=East Texas Rag - Smith Casey
TTITLE3=Mississippi Boweavil - Charley Patton
TTITLE4=It Won't Be Long - Charley Patton
TTITLE5=Fence Breakin' Blues - Shreveport Homewreckers
TTITLE6=Nappy Head Blues - Bobby Grant
TTITLE7=Somebody Changed The Lock On My Door - Casey Bill Weldon
TTITLE8=Bedside Blues - Jim Thompkins
TTITLE9=Country Farm Blues - Son House
TTITLE10=Black Hearted Blues - Tampa Red
TTITLE11=The Dirty Dozen No. 2 - Tampa Red
TTITLE12=No Job Blues - Ramblin' thomas
TTITLE13=Weak Minded Blues - Willie Baker
TTITLE14=Whoopee Blues - King Solomon Hill
TTITLE15=Yellow Dog Blues - Sam Collins
TTITLE16=Moanin' The Blues - Allen Shaw
TTITLE17=Early One Morning - Dan Pickett
TTITLE18=Rollin" And Tumblin" Part 1 - Leroy Foster, Muddy Waters and Little Walter
TTITLE19=Rollin" And Tumblin" Part 2 - Leroy Foster, Muddy Waters and Little Walter
EXTD=YEAR: 2000 ID3G: 0
EXTT0=
EXTT1=
EXTT2=
EXTT3=
EXTT4=
EXTT5=
EXTT6=
EXTT7=
EXTT8=
EXTT9=
EXTT10=
EXTT11=
EXTT12=
EXTT13=
EXTT14=
EXTT15=
EXTT16=
EXTT17=
EXTT18=
EXTT19=
PLAYORDER=
